# xmcd
#
# Track frame offsets: 
#        150
#        16987
#        33641
#        51786
#        74888
#        98909
#        117090
#        135852
#        150750
#        165862
#        183538
#        203812
#        218813
#
# Disc length: 3134 seconds
#
# Revision: 1
# Processed by: cddbd v1.5.2PL0 Copyright (c) Steve Scherf et al.
# Submitted via: ExactAudioCopy v1.3
#
DISCID=a80c3c0d
DTITLE=Sestā jūdze - Iebrien manā saulrietā
DYEAR=2012
DGENRE=Latvian
TTITLE0=Kurš sapratīs
TTITLE1=Es būšu pie Tevis
TTITLE2=Vienīgā diena, vienīgā nakts
TTITLE3=Tavs rīta vējš
TTITLE4=Lai esi Tu, lai esi man, lai esi
TTITLE5=Drive West
TTITLE6=Paliec ar mani
TTITLE7=Tālāk par vārdiem
TTITLE8=Apskauj mani
TTITLE9=Es jau tepat vien
TTITLE10=Rīdziņa
TTITLE11=Limuzīns
TTITLE12=Iebrien manā saulrietā
EXTD=
EXTT0=
EXTT1=
EXTT2=
EXTT3=
EXTT4=
EXTT5=
EXTT6=
EXTT7=
EXTT8=
EXTT9=
EXTT10=
EXTT11=
EXTT12=
PLAYORDER=
